<?xml version="1.0" encoding="UTF-8" standalone="no"?>
<svg
   xmlns:dc="http://purl.org/dc/elements/1.1/"
   xmlns:cc="http://creativecommons.org/ns#"
   xmlns:rdf="http://www.w3.org/1999/02/22-rdf-syntax-ns#"
   xmlns:svg="http://www.w3.org/2000/svg"
   xmlns="http://www.w3.org/2000/svg"
   width="128"
   height="128"
   viewBox="0 0 33.866666 33.866668"
   version="1.1"
   id="svg8">
  <defs
     id="defs2" />
  <metadata
     id="metadata5">
    <rdf:RDF>
      <cc:Work
         rdf:about="">
        <dc:format>image/svg+xml</dc:format>
        <dc:type
           rdf:resource="http://purl.org/dc/dcmitype/StillImage" />
        <dc:title></dc:title>
      </cc:Work>
    </rdf:RDF>
  </metadata>
  <g
     id="layer1"
     style="display:inline">
    <path
       id="path833"
       style="fill:#c0beac;stroke-width:0.938971;stroke-dasharray:0.938971, 5.63384"
       d="M 64,4 C 41.660172,3.9999996 -1.1054621,32.394496 11.843796,34.318839 17.609467,35.175654 3.9999998,53.202742 4,64 c 2e-7,10.610489 6.647766,19.363694 7.586681,29.225718 C 14.167709,120.33589 41.473404,124 64,124 c 7.956471,0 12.203038,-5.49987 22.499259,-4.36108 C 103.87818,121.56108 124,89.180615 124,64 124,53.320011 115.53215,10.827156 116.31809,34.604515 116.71317,46.55693 86.457096,4.0000004 64,4 Z M 63.94727,14 H 64 c 23.521841,0 46.11227,47.817394 48.58088,38.123152 C 117.09924,34.379509 114,59.907603 114,64 114,81.608932 107.48679,107.18291 91.140657,105.99977 72.252794,104.63265 74.005305,114 64,114 44.759143,114 19.485245,113.31045 19.696526,87.199564 19.759883,79.369702 14,72.373381 14,64 13.999991,47.494398 46.105334,24.462389 34.867551,23.034891 24.65067,21.737075 52.859218,14.011695 63.947266,14 Z"
       transform="scale(0.26458334)" />
  </g>
  <g
     id="layer3">
    <path
       style="fill:#c0beac;stroke:none;stroke-width:0.264583px;stroke-linecap:butt;stroke-linejoin:miter;stroke-opacity:1;fill-opacity:1"
       d="m 18.441598,31.003267 0.06682,-9.955791 h 3.0736 l 0.668174,-3.708365 h -3.741774 c 0,0 0.03474,-2.157122 0.03474,-3.256796 0,-2.184705 3.80726,-1.353603 3.80726,-1.353603 V 9.0537556 c 0,0 -2.043821,0 -4.15103,0 -2.70026,0.075182 -4.15203,2.1656774 -4.201143,4.0424514 0,1.502738 0,4.242904 0,4.242904 h -3.57473 v 3.674956 h 3.507913 v 10.089424 z"
       id="path861" />
  </g>
</svg>
