<?xml version="1.0" encoding="UTF-8" standalone="no"?>
<svg
   xmlns:dc="http://purl.org/dc/elements/1.1/"
   xmlns:cc="http://creativecommons.org/ns#"
   xmlns:rdf="http://www.w3.org/1999/02/22-rdf-syntax-ns#"
   xmlns:svg="http://www.w3.org/2000/svg"
   xmlns="http://www.w3.org/2000/svg"
   width="128"
   height="128"
   viewBox="0 0 33.866666 33.866668"
   version="1.1"
   id="svg8">
  <defs
     id="defs2" />
  <metadata
     id="metadata5">
    <rdf:RDF>
      <cc:Work
         rdf:about="">
        <dc:format>image/svg+xml</dc:format>
        <dc:type
           rdf:resource="http://purl.org/dc/dcmitype/StillImage" />
        <dc:title></dc:title>
      </cc:Work>
    </rdf:RDF>
  </metadata>
  <g
     id="layer1"
     style="display:inline">
    <path
       id="path833"
       style="fill:#c0beac;stroke-width:0.938971;stroke-dasharray:0.938971, 5.63384"
       d="M 64,4 C 41.660172,3.9999996 -1.1054621,32.394496 11.843796,34.318839 17.609467,35.175654 3.9999998,53.202742 4,64 c 2e-7,10.610489 6.647766,19.363694 7.586681,29.225718 C 14.167709,120.33589 41.473404,124 64,124 c 7.956471,0 12.203038,-5.49987 22.499259,-4.36108 C 103.87818,121.56108 124,89.180615 124,64 124,53.320011 115.53215,10.827156 116.31809,34.604515 116.71317,46.55693 86.457096,4.0000004 64,4 Z M 63.94727,14 H 64 c 23.521841,0 46.11227,47.817394 48.58088,38.123152 C 117.09924,34.379509 114,59.907603 114,64 114,81.608932 107.48679,107.18291 91.140657,105.99977 72.252794,104.63265 74.005305,114 64,114 44.759143,114 19.485245,113.31045 19.696526,87.199564 19.759883,79.369702 14,72.373381 14,64 13.999991,47.494398 46.105334,24.462389 34.867551,23.034891 24.65067,21.737075 52.859218,14.011695 63.947266,14 Z"
       transform="scale(0.26458334)" />
  </g>
  <g
     id="layer3"
     style="display:inline">
    <path
       id="path1139"
       style="fill:#c0beac;fill-opacity:1;stroke:none;stroke-width:1.20272;stroke-dasharray:1.20272, 7.21633"
       d="m 83.857422,41.53125 c -3.113475,-0.0092 -8.421456,2.164635 -11.789063,3.699219 a 26.656474,20.771262 0 0 0 -8.314453,-1.03711 26.656474,20.771262 0 0 0 -8.265625,1.025391 c -3.401154,-1.548526 -8.732833,-3.728959 -11.841797,-3.683594 -0.683336,0.01 -1.255722,0.128575 -1.671875,0.386719 -1.463071,0.907559 -1.294989,7.438751 -0.96289,12.208984 a 26.656474,20.771262 0 0 0 -3.914063,10.833985 26.656474,20.771262 0 0 0 17.320313,19.457031 c -0.770508,0.92204 -1.226563,2.320087 -1.226563,4.345703 v 0.185547 c -2.971905,0.04701 -8.554968,-0.114894 -9.296875,-1.986328 -1.404181,-3.541999 -10.395445,-8.491921 -9.548828,-5.396485 1.405372,5.138378 3.374212,2.061438 7.197266,10.732422 1.624866,3.685327 8.2775,3.576129 11.648437,3.269532 V 119.57617 H 74.373047 V 90.15625 88.767578 c 0,-2.039465 -0.467717,-3.435764 -1.248047,-4.357422 A 26.656474,20.771262 0 0 0 90.410156,64.964844 26.656474,20.771262 0 0 0 86.564453,54.220703 c 0.336713,-4.77854 0.520315,-11.384837 -0.953125,-12.298828 -0.43397,-0.269196 -1.035412,-0.3885 -1.753906,-0.390625 z"
       transform="scale(0.26458334)" />
  </g>
</svg>
