<?xml version="1.0" encoding="UTF-8" standalone="no"?>
<svg
   xmlns:dc="http://purl.org/dc/elements/1.1/"
   xmlns:cc="http://creativecommons.org/ns#"
   xmlns:rdf="http://www.w3.org/1999/02/22-rdf-syntax-ns#"
   xmlns:svg="http://www.w3.org/2000/svg"
   xmlns="http://www.w3.org/2000/svg"
   xmlns:sodipodi="http://sodipodi.sourceforge.net/DTD/sodipodi-0.dtd"
   xmlns:inkscape="http://www.inkscape.org/namespaces/inkscape"
   width="128"
   height="128"
   viewBox="0 0 33.866666 33.866668"
   version="1.1"
   id="svg8"
   inkscape:version="1.0.1 (3bc2e813f5, 2020-09-07)"
   sodipodi:docname="in-social.svg">
  <defs
     id="defs2" />
  <sodipodi:namedview
     id="base"
     pagecolor="#ffffff"
     bordercolor="#666666"
     borderopacity="1.0"
     inkscape:pageopacity="0.0"
     inkscape:pageshadow="2"
     inkscape:zoom="5.6"
     inkscape:cx="60.57948"
     inkscape:cy="62.409369"
     inkscape:document-units="px"
     inkscape:current-layer="layer3"
     inkscape:document-rotation="0"
     showgrid="false"
     units="px"
     showguides="true"
     inkscape:guide-bbox="true"
     inkscape:window-width="1920"
     inkscape:window-height="1027"
     inkscape:window-x="-8"
     inkscape:window-y="22"
     inkscape:window-maximized="1" />
  <metadata
     id="metadata5">
    <rdf:RDF>
      <cc:Work
         rdf:about="">
        <dc:format>image/svg+xml</dc:format>
        <dc:type
           rdf:resource="http://purl.org/dc/dcmitype/StillImage" />
        <dc:title></dc:title>
      </cc:Work>
    </rdf:RDF>
  </metadata>
  <g
     inkscape:label="Baza"
     inkscape:groupmode="layer"
     id="layer1"
     style="display:inline">
    <path
       id="path833"
       style="fill:#c0beac;stroke-width:0.938971;stroke-dasharray:0.938971, 5.63384"
       d="M 64,4 C 41.660172,3.9999996 -1.1054621,32.394496 11.843796,34.318839 17.609467,35.175654 3.9999998,53.202742 4,64 c 2e-7,10.610489 6.647766,19.363694 7.586681,29.225718 C 14.167709,120.33589 41.473404,124 64,124 c 7.956471,0 12.203038,-5.49987 22.499259,-4.36108 C 103.87818,121.56108 124,89.180615 124,64 124,53.320011 115.53215,10.827156 116.31809,34.604515 116.71317,46.55693 86.457096,4.0000004 64,4 Z M 63.94727,14 H 64 c 23.521841,0 46.11227,47.817394 48.58088,38.123152 C 117.09924,34.379509 114,59.907603 114,64 114,81.608932 107.48679,107.18291 91.140657,105.99977 72.252794,104.63265 74.005305,114 64,114 44.759143,114 19.485245,113.31045 19.696526,87.199564 19.759883,79.369702 14,72.373381 14,64 13.999991,47.494398 46.105334,24.462389 34.867551,23.034891 24.65067,21.737075 52.859218,14.011695 63.947266,14 Z"
       transform="scale(0.26458334)"
       sodipodi:nodetypes="ssssssssscsssssscsc" />
  </g>
  <g
     inkscape:groupmode="layer"
     id="layer3"
     inkscape:label="logo">
    <path
       id="rect1414"
       style="fill:#c0beac;fill-opacity:1;stroke:none;stroke-width:0.264999;stroke-dasharray:0.264999, 1.59"
       d="m 10.91613,8.9200977 a 2.2216778,2.2216778 0 0 0 -2.2133019,2.2215693 2.2216778,2.2216778 0 0 0 2.2215699,2.221571 2.2216778,2.2216778 0 0 0 2.222087,-2.221571 2.2216778,2.2216778 0 0 0 -2.222087,-2.2215693 2.2216778,2.2216778 0 0 0 -0.0083,0 z m 11.300602,5.3790003 c -1.783116,0 -2.940908,1.129759 -3.407544,1.69292 v -1.425753 h -3.875732 v 11.659753 h 3.875732 v -7.41195 c 1.102899,-0.923338 4.009058,-2.78217 4.009058,0.896586 v 6.515364 h 3.875215 v -7.51737 c -0.08404,-3.066922 -2.101801,-4.40955 -4.476729,-4.40955 z M 8.9870486,14.566265 V 26.226018 H 12.862264 V 14.566265 Z" />
  </g>
</svg>
