<?xml version="1.0" encoding="UTF-8" standalone="no"?>
<svg
   xmlns:dc="http://purl.org/dc/elements/1.1/"
   xmlns:cc="http://creativecommons.org/ns#"
   xmlns:rdf="http://www.w3.org/1999/02/22-rdf-syntax-ns#"
   xmlns:svg="http://www.w3.org/2000/svg"
   xmlns="http://www.w3.org/2000/svg"
   xmlns:sodipodi="http://sodipodi.sourceforge.net/DTD/sodipodi-0.dtd"
   xmlns:inkscape="http://www.inkscape.org/namespaces/inkscape"
   width="48"
   height="48"
   viewBox="0 0 48 48"
   fill="none"
   version="1.1"
   id="svg897"
   sodipodi:docname="i_mail.svg"
   inkscape:version="1.0.1 (3bc2e813f5, 2020-09-07)">
  <metadata
     id="metadata903">
    <rdf:RDF>
      <cc:Work
         rdf:about="">
        <dc:format>image/svg+xml</dc:format>
        <dc:type
           rdf:resource="http://purl.org/dc/dcmitype/StillImage" />
        <dc:title></dc:title>
      </cc:Work>
    </rdf:RDF>
  </metadata>
  <defs
     id="defs901" />
  <sodipodi:namedview
     pagecolor="#ffffff"
     bordercolor="#666666"
     borderopacity="1"
     objecttolerance="10"
     gridtolerance="10"
     guidetolerance="10"
     inkscape:pageopacity="0"
     inkscape:pageshadow="2"
     inkscape:window-width="1920"
     inkscape:window-height="1027"
     id="namedview899"
     showgrid="false"
     inkscape:zoom="16.5625"
     inkscape:cx="24"
     inkscape:cy="24"
     inkscape:window-x="-8"
     inkscape:window-y="22"
     inkscape:window-maximized="1"
     inkscape:current-layer="svg897" />
  <path
     fill-rule="evenodd"
     clip-rule="evenodd"
     d="M24 0C10.7452 0 0 10.7452 0 24C0 37.2548 10.7452 48 24 48C37.2548 48 48 37.2548 48 24C48 10.7452 37.2548 0 24 0ZM10 23.9603C10 16.2626 16.2802 10 23.9998 10C31.7194 10 37.9997 16.2626 37.9997 23.9603C37.9997 25.0508 37.9087 25.9336 37.7048 26.8197L37.7018 26.8344C37.7013 26.837 37.6001 27.2455 37.5442 27.4237C37.1982 28.5272 36.5718 29.4463 35.7325 30.0815C34.9186 30.6977 33.9094 31.0371 32.891 31.0371C32.7652 31.0371 32.6385 31.032 32.5144 31.0221C31.0682 30.9063 29.7966 30.1474 29.0168 28.9373C27.6757 30.282 25.8964 31.0218 23.9998 31.0218C20.0951 31.0218 16.9184 27.854 16.9184 23.9603C16.9184 20.0666 20.0951 16.8989 23.9998 16.8989C27.9045 16.8989 31.0812 20.0666 31.0812 23.9603V26.2366C31.087 27.5648 31.9808 28.1077 32.7444 28.1691C33.5041 28.2276 34.5152 27.7863 34.8674 26.3461C35.0411 25.5562 35.1294 24.7533 35.1294 23.9603C35.1294 17.8407 30.1367 12.8621 23.9998 12.8621C17.8629 12.8621 12.8703 17.8407 12.8703 23.9603C12.8703 30.0798 17.8629 35.0585 23.9998 35.0585C26.136 35.0585 28.2136 34.4501 30.0079 33.2991L30.0401 33.2784L31.9261 35.465L31.8856 35.4926C29.5549 37.0811 26.828 37.9207 23.9998 37.9207C16.2802 37.9207 10 31.6581 10 23.9603Z"
     fill="black"
     id="path893"
     style="fill:#c0beac;fill-opacity:1" />
  <path
     fill-rule="evenodd"
     clip-rule="evenodd"
     d="M28.2108 23.9602C28.2108 26.2757 26.3217 28.1595 23.9998 28.1595C21.6777 28.1595 19.7887 26.2757 19.7887 23.9602C19.7887 21.6448 21.6777 19.7611 23.9998 19.7611C26.3217 19.7611 28.2108 21.6448 28.2108 23.9602Z"
     fill="black"
     id="path895"
     style="fill:#c0beac;fill-opacity:1" />
</svg>
