<?xml version="1.0" encoding="UTF-8" standalone="no"?>
<svg
   xmlns:dc="http://purl.org/dc/elements/1.1/"
   xmlns:cc="http://creativecommons.org/ns#"
   xmlns:rdf="http://www.w3.org/1999/02/22-rdf-syntax-ns#"
   xmlns:svg="http://www.w3.org/2000/svg"
   xmlns="http://www.w3.org/2000/svg"
   width="128"
   height="128"
   viewBox="0 0 33.866666 33.866668"
   version="1.1"
   id="svg8">
  <defs
     id="defs2" />
  <metadata
     id="metadata5">
    <rdf:RDF>
      <cc:Work
         rdf:about="">
        <dc:format>image/svg+xml</dc:format>
        <dc:type
           rdf:resource="http://purl.org/dc/dcmitype/StillImage" />
        <dc:title></dc:title>
      </cc:Work>
    </rdf:RDF>
  </metadata>
  <g
     id="layer1"
     style="display:inline">
    <path
       id="path833"
       style="fill:#c0beac;stroke-width:0.938971;stroke-dasharray:0.938971, 5.63384"
       d="M 64,4 C 41.660172,3.9999996 -1.1054621,32.394496 11.843796,34.318839 17.609467,35.175654 3.9999998,53.202742 4,64 c 2e-7,10.610489 6.647766,19.363694 7.586681,29.225718 C 14.167709,120.33589 41.473404,124 64,124 c 7.956471,0 12.203038,-5.49987 22.499259,-4.36108 C 103.87818,121.56108 124,89.180615 124,64 124,53.320011 115.53215,10.827156 116.31809,34.604515 116.71317,46.55693 86.457096,4.0000004 64,4 Z M 63.94727,14 H 64 c 23.521841,0 46.11227,47.817394 48.58088,38.123152 C 117.09924,34.379509 114,59.907603 114,64 114,81.608932 107.48679,107.18291 91.140657,105.99977 72.252794,104.63265 74.005305,114 64,114 44.759143,114 19.485245,113.31045 19.696526,87.199564 19.759883,79.369702 14,72.373381 14,64 13.999991,47.494398 46.105334,24.462389 34.867551,23.034891 24.65067,21.737075 52.859218,14.011695 63.947266,14 Z"
       transform="scale(0.26458334)" />
  </g>
  <g
     id="layer3">
    <path
       id="path1261"
       style="fill:#c0beac;fill-opacity:1;stroke:none;stroke-width:0.267838;stroke-dasharray:0.267838, 1.60704"
       d="m 16.933334,8.3627432 c -5.333575,0 -9.6572916,4.3237168 -9.6572916,9.6572918 0,5.333575 4.3237166,9.657292 9.6572916,9.657292 2.260172,2e-6 4.44875,-0.792736 6.184636,-2.240173 l -1.787488,-1.787488 c -1.255811,0.981019 -2.803579,1.51398 -4.397148,1.51412 -3.945384,0 -7.1437498,-3.198366 -7.1437498,-7.143751 -2.1e-6,-3.94256 3.1939568,-7.139757 7.1365158,-7.14375 h 0.0072 c 3.945385,0 7.143751,3.198366 7.143751,7.14375 2e-6,0.583306 -0.07274,1.160302 -0.211357,1.719275 a 1.0715626,1.0715626 0 0 1 -1.001489,0.689881 1.0715626,1.0715626 0 0 1 -1.07177,-1.071769 1.0715626,1.0715626 0 0 1 0.0016,-0.05478 5.0270835,5.0270835 0 0 0 0.166398,-1.282609 5.0270835,5.0270835 0 0 0 -5.027084,-5.027083 5.0270835,5.0270835 0 0 0 -0.04134,0 5.0270835,5.0270835 0 0 0 -4.985742,5.027083 5.0270835,5.0270835 0 0 0 5.027083,5.027084 5.0270835,5.0270835 0 0 0 3.308842,-1.242818 3.5866492,3.5866492 0 0 0 2.622063,1.139982 3.5866492,3.5866492 0 0 0 3.503662,-2.818433 l -0.01137,-0.0021 c 0.0042,-0.01805 0.0094,-0.03306 0.01344,-0.05168 0.145697,-0.669841 0.220621,-1.357653 0.220658,-2.052071 0,-5.333575 -4.323717,-9.6572918 -9.657292,-9.6572918 z m -0.0052,7.0114588 a 2.6458334,2.6458334 0 0 1 0.0052,0 2.6458334,2.6458334 0 0 1 2.645834,2.645833 2.6458334,2.6458334 0 0 1 -2.645834,2.645834 2.6458334,2.6458334 0 0 1 -2.645833,-2.645834 2.6458334,2.6458334 0 0 1 2.640666,-2.645833 z" />
  </g>
</svg>
